<?xml version="1.0" encoding="UTF-8" standalone="no"?>
<!DOCTYPE svg PUBLIC "-//W3C//DTD SVG 1.1//EN" "http://www.w3.org/Graphics/SVG/1.1/DTD/svg11.dtd">
<svg width="100%" height="100%" viewBox="0 0 184 30" version="1.1" xmlns="http://www.w3.org/2000/svg" xmlns:xlink="http://www.w3.org/1999/xlink" xml:space="preserve" xmlns:serif="http://www.serif.com/" style="fill-rule:evenodd;clip-rule:evenodd;stroke-linejoin:round;stroke-miterlimit:1.41421;">
    <g id="logo">
        <path id="WARE-HOUSE" d="M18.8,29L15,29L11.9,10.5L11.8,10.5L8.7,29L4.9,29L0.6,0.5L5,0.5L7,18.6L7.1,18.6L10.3,0.5L13.4,0.5L16.7,19L16.8,19L18.8,0.5L23.1,0.5L18.8,29ZM31.9,8.7L29.8,19L33.9,19L31.9,8.7ZM30.2,0.5L33.6,0.5L39.9,29L35.8,29L34.6,22.9L29,22.9L27.9,29L23.8,29L30.2,0.5ZM46,13.2L48.3,13.2C49,13.2 49.6,13.1 50,12.9C50.4,12.7 50.8,12.4 51,12C51.2,11.6 51.4,11.2 51.5,10.6C51.6,10.1 51.6,9.4 51.6,8.7C51.6,8 51.6,7.3 51.5,6.8C51.4,6.3 51.3,5.8 51,5.4C50.7,5 50.4,4.7 49.9,4.5C49.4,4.3 48.8,4.2 48.1,4.2L46,4.2L46,13.2ZM41.9,0.5L48.5,0.5C53.3,0.5 55.7,3.3 55.7,8.9C55.7,10.6 55.4,12 54.9,13.2C54.4,14.4 53.5,15.3 52.2,16.1L56.6,29.1L52.3,29.1L48.5,16.9L46,16.9L46,29L41.9,29L41.9,0.5ZM59,0.5L71.2,0.5L71.2,4.3L63,4.3L63,12.7L70,12.7L70,16.5L63,16.5L63,24.9L71.1,24.9L71.1,29L59,29L59,0.5ZM103.9,0.5L108,0.5L108,12.7L113,12.7L113,0.5L117.1,0.5L117.1,29L113,29L113,16.3L108,16.3L108,29L103.9,29L103.9,0.5ZM120.7,7.2C120.7,6.1 120.9,5 121.3,4.2C121.7,3.4 122.2,2.6 122.9,2C123.6,1.4 124.3,1 125.1,0.7C125.9,0.4 126.7,0.3 127.6,0.3C128.4,0.3 129.2,0.4 130.1,0.7C131,1 131.6,1.4 132.3,2C133,2.6 133.5,3.3 133.9,4.2C134.3,5.1 134.5,6.1 134.5,7.2L134.5,22.2C134.5,23.4 134.3,24.4 133.9,25.3C133.5,26.2 133,26.9 132.3,27.5C131.6,28.1 130.9,28.5 130.1,28.8C129.3,29.1 128.5,29.2 127.6,29.2C126.8,29.2 126,29.1 125.1,28.8C124.2,28.5 123.6,28.1 122.9,27.5C122.2,26.9 121.7,26.2 121.3,25.3C120.9,24.4 120.7,23.4 120.7,22.2L120.7,7.2ZM124.8,22.3C124.8,23.3 125.1,24 125.6,24.5C126.1,25 126.8,25.2 127.5,25.2C128.2,25.2 128.9,25 129.4,24.5C129.9,24 130.2,23.3 130.2,22.3L130.2,7.3C130.2,6.3 129.9,5.6 129.4,5.1C128.9,4.6 128.2,4.4 127.5,4.4C126.8,4.4 126.1,4.6 125.6,5.1C125.1,5.6 124.8,6.3 124.8,7.3L124.8,22.3ZM151.2,22.6C151.2,23.5 151,24.4 150.7,25.2C150.4,26 149.9,26.7 149.3,27.3C148.7,27.9 148,28.4 147.2,28.7C146.4,29 145.5,29.2 144.6,29.2C143.7,29.2 142.8,29 142,28.7C141.2,28.4 140.5,27.9 139.9,27.3C139.3,26.7 138.8,26 138.5,25.2C138.2,24.4 138,23.5 138,22.6L138,0.5L142.1,0.5L142.1,22.2C142.1,23.2 142.3,24 142.8,24.4C143.3,24.9 143.9,25.1 144.6,25.1C145.3,25.1 145.9,24.9 146.4,24.4C146.9,23.9 147.1,23.2 147.1,22.2L147.1,0.5L151.2,0.5L151.2,22.6ZM168.2,8.7L164.1,8.7L164.1,7.8C164.1,6.9 163.9,6.1 163.4,5.4C162.9,4.7 162.2,4.4 161.2,4.4C160.6,4.4 160.2,4.5 159.8,4.7C159.4,4.9 159.2,5.2 159,5.5C158.8,5.8 158.7,6.2 158.6,6.7C158.5,7.1 158.5,7.6 158.5,8.1C158.5,8.7 158.5,9.1 158.6,9.5C158.6,9.9 158.7,10.2 158.9,10.5C159.1,10.8 159.3,11 159.6,11.2C159.9,11.4 160.3,11.6 160.9,11.8L164,13C164.9,13.3 165.6,13.8 166.2,14.2C166.8,14.7 167.2,15.2 167.5,15.8C167.8,16.4 168,17.1 168.1,18C168.2,18.8 168.3,19.7 168.3,20.8C168.3,22 168.2,23.1 167.9,24.1C167.7,25.1 167.3,26 166.7,26.7C166.2,27.4 165.4,28 164.5,28.4C163.6,28.8 162.5,29 161.2,29C160.2,29 159.3,28.8 158.4,28.5C157.5,28.2 156.8,27.7 156.2,27.1C155.6,26.5 155.1,25.8 154.7,25C154.3,24.2 154.2,23.3 154.2,22.3L154.2,21L158.3,21L158.3,22.3C158.3,23 158.5,23.7 159,24.3C159.5,24.9 160.2,25.2 161.2,25.2C161.9,25.2 162.4,25.1 162.8,24.9C163.2,24.7 163.5,24.4 163.7,24.1C163.9,23.7 164,23.3 164.1,22.8C164.2,22.3 164.2,21.7 164.2,21C164.2,20.3 164.2,19.6 164.1,19.2C164,18.7 163.9,18.3 163.8,18C163.6,17.7 163.4,17.5 163.1,17.3C162.8,17.1 162.4,16.9 161.9,16.7L159,15.5C157.2,14.8 156.1,13.8 155.5,12.6C154.9,11.4 154.6,9.9 154.6,8.1C154.6,7 154.7,6 155,5.1C155.3,4.2 155.7,3.3 156.3,2.6C156.9,1.9 157.6,1.4 158.5,0.9C159.4,0.4 160.4,0.3 161.6,0.3C162.6,0.3 163.5,0.5 164.4,0.9C165.2,1.3 166,1.8 166.6,2.4C167.2,3 167.7,3.7 168,4.5C168.3,5.3 168.5,6 168.5,6.8L168.5,8.7L168.2,8.7ZM171.3,0.5L183.5,0.5L183.5,4.3L175.4,4.3L175.4,12.7L182.4,12.7L182.4,16.5L175.4,16.5L175.4,24.9L183.5,24.9L183.5,29L171.3,29L171.3,0.5Z" style="fill:white;fill-rule:nonzero;"/>
        <path id="Combined-Shape" d="M77,8.3L87.5,0L98,8.3L98,29L77,29L77,8.3Z" style="fill:white;fill-rule:nonzero;"/>
    </g>
</svg>
